<?xml version="1.0" encoding="UTF-8"?><svg xmlns="http://www.w3.org/2000/svg" xmlns:xlink="http://www.w3.org/1999/xlink" viewBox="0 0 48 48" version="1.1"><path d="M40 24.004V24v-.004c0-.07-.012-.144-.012-.219C39.868 15.047 32.762 8 24 8c-.648 0-1.285.05-1.91.125.164-2.188 1.863-4.54 1.863-4.54.188-.382-.238-.741-.605-.522C20.438 4.772 8 10.082 8 23.995V24c0 8.836 7.164 16 16 16 .648 0 1.281-.05 1.91-.125-.168 2.188-1.863 4.535-1.863 4.535-.192.38.238.738.605.52C27.56 43.223 40 38.082 40 24.004zM30 24c0 3.313-2.688 6-6 6-3.313 0-6-2.688-6-6 0-3.313 2.688-6 6-6 3.313 0 6 2.688 6 6z" fill="#FF6E40" id="surface1"/><metadata><rdf:RDF xmlns:rdf="http://www.w3.org/1999/02/22-rdf-syntax-ns#" xmlns:rdfs="http://www.w3.org/2000/01/rdf-schema#" xmlns:dc="http://purl.org/dc/elements/1.1/"><rdf:Description about="https://iconscout.com/legal#licenses" dc:title="origin" dc:description="origin" dc:publisher="Iconscout" dc:date="2017-12-15" dc:format="image/svg+xml" dc:language="en"><dc:creator><rdf:Bag><rdf:li>Icons8</rdf:li></rdf:Bag></dc:creator></rdf:Description></rdf:RDF></metadata></svg>